<svg width="1800" height="1029" viewBox="0 0 1800 1029" fill="none" xmlns="http://www.w3.org/2000/svg">
<mask id="mask0_1400_5141" style="mask-type:alpha" maskUnits="userSpaceOnUse" x="0" y="0" width="1800" height="1029">
<rect width="1800" height="1029" fill="#2976D9"/>
</mask>
<g mask="url(#mask0_1400_5141)">
<g style="mix-blend-mode:multiply" opacity="0.2">
<path d="M2530.05 1302.5L3428 780.372V313.208L1726.6 1302.5H2530.05Z" fill="url(#paint0_linear_1400_5141)"/>
<path d="M2382.44 1302.5L3428 811.482V365.071L1431.88 1302.5H2382.44Z" fill="url(#paint1_linear_1400_5141)"/>
<path d="M2192.23 1302.5L3428 849.504V418.976L1017.69 1302.5H2192.23Z" fill="url(#paint2_linear_1400_5141)"/>
<path d="M1915.49 1302.5L3428 894.339V475.495L363.354 1302.5H1915.49Z" fill="url(#paint3_linear_1400_5141)"/>
<path d="M1420.85 1302.5L3428 946.059V535.242L0 1143.98V1302.5H1420.85Z" fill="url(#paint4_linear_1400_5141)"/>
<path d="M52.3484 1302.5L3428 1005.06V598.931L0 900.981V1302.5H52.3484Z" fill="url(#paint5_linear_1400_5141)"/>
<path d="M3428 667.42H0V1071.98H3428V667.42Z" fill="url(#paint6_linear_1400_5141)"/>
<path d="M0 439.587V845.719L3428 1147.75V741.622L0 439.587Z" fill="url(#paint7_linear_1400_5141)"/>
<path d="M0 214.067V624.913L3428 1233.63V822.808L0 214.067Z" fill="url(#paint8_linear_1400_5141)"/>
<path d="M3428 1302.5V912.494L0 -12.5518V406.307L3321.13 1302.5H3428Z" fill="url(#paint9_linear_1400_5141)"/>
<path d="M3428 1302.5V1012.59L0 -243.97V186.558L3044.39 1302.5H3428Z" fill="url(#paint10_linear_1400_5141)"/>
<path d="M3428 1302.5V1125.57L0 -484.288V-37.8768L2854.18 1302.5H3428Z" fill="url(#paint11_linear_1400_5141)"/>
<path d="M3428 1302.5V1254.82L0 -738.402V-271.237L2706.55 1302.5H3428Z" fill="url(#paint12_linear_1400_5141)"/>
<path d="M3282.91 1302.5L0 -1012.57V-518.667L2582.55 1302.5H3282.91Z" fill="url(#paint13_linear_1400_5141)"/>
<path d="M3097.41 1302.5L224.063 -1125.67H0V-786.866L2472.47 1302.5H3097.41Z" fill="url(#paint14_linear_1400_5141)"/>
<path d="M2938.88 1302.5L527.855 -1125.67H0V-1085.12L2370.78 1302.5H2938.88Z" fill="url(#paint15_linear_1400_5141)"/>
<path d="M2798.45 1302.5L775.341 -1125.67H250.914L2274.03 1302.5H2798.45Z" fill="url(#paint16_linear_1400_5141)"/>
<path d="M2670.23 1302.5L982.022 -1125.67H491.604L2179.82 1302.5H2670.23Z" fill="url(#paint17_linear_1400_5141)"/>
<path d="M2550.28 1302.5L1158.26 -1125.67H694.385L2086.4 1302.5H2550.28Z" fill="url(#paint18_linear_1400_5141)"/>
<path d="M2435.54 1302.5L1311.27 -1125.67H868.012L1992.3 1302.5H2435.54Z" fill="url(#paint19_linear_1400_5141)"/>
<path d="M2323.74 1302.5L1446.22 -1125.67H1018.7L1896.25 1302.5H2323.74Z" fill="url(#paint20_linear_1400_5141)"/>
<path d="M2212.97 1302.5L1566.92 -1125.67H1151.04L1797.07 1302.5H2212.97Z" fill="url(#paint21_linear_1400_5141)"/>
<path d="M2101.46 1302.5L1676.33 -1125.67H1268.42L1693.55 1302.5H2101.46Z" fill="url(#paint22_linear_1400_5141)"/>
<path d="M1987.64 1302.5L1776.72 -1125.67H1373.44L1584.39 1302.5H1987.64Z" fill="url(#paint23_linear_1400_5141)"/>
<path d="M1869.86 -1125.67H1468.13V1302.5H1869.86V-1125.67Z" fill="url(#paint24_linear_1400_5141)"/>
<path d="M1746.34 1302.5L1957.26 -1125.67H1554.03L1343.09 1302.5H1746.34Z" fill="url(#paint25_linear_1400_5141)"/>
<path d="M1615.13 1302.5L2040.26 -1125.67H1632.34L1207.23 1302.5H1615.13Z" fill="url(#paint26_linear_1400_5141)"/>
<path d="M1473.92 1302.5L2119.96 -1125.67H1704.07L1058.04 1302.5H1473.92Z" fill="url(#paint27_linear_1400_5141)"/>
<path d="M1319.88 1302.5L2197.43 -1125.67H1769.91L892.395 1302.5H1319.88Z" fill="url(#paint28_linear_1400_5141)"/>
<path d="M1149.41 1302.5L2273.68 -1125.67H1830.44L706.154 1302.5H1149.41Z" fill="url(#paint29_linear_1400_5141)"/>
<path d="M957.869 1302.5L2349.87 -1125.67H1886.01L494.004 1302.5H957.869Z" fill="url(#paint30_linear_1400_5141)"/>
<path d="M738.976 1302.5L2427.19 -1125.67H1936.79L248.572 1302.5H738.976Z" fill="url(#paint31_linear_1400_5141)"/>
<path d="M484.105 1302.5L2507.17 -1125.67H1982.78L0 1254.12V1302.5H484.105Z" fill="url(#paint32_linear_1400_5141)"/>
<path d="M180.77 1302.5L2591.78 -1125.67H2023.69L0 912.408V1302.5H180.77Z" fill="url(#paint33_linear_1400_5141)"/>
<path d="M0 1142.28L2683.77 -1125.67H2058.81L0 614.172V1142.28Z" fill="url(#paint34_linear_1400_5141)"/>
<path d="M0 839.819L2787.21 -1125.67H2086.85L0 345.931V839.819Z" fill="url(#paint35_linear_1400_5141)"/>
<path d="M0 565.68L2908.8 -1125.67H2105.36L0 98.5149V565.68Z" fill="url(#paint36_linear_1400_5141)"/>
<path d="M0 311.536L3060.38 -1125.67H2109.83L0 -134.846V311.536Z" fill="url(#paint37_linear_1400_5141)"/>
<path d="M0 71.248L3265.27 -1125.67H2090.72L0 -359.294V71.248Z" fill="url(#paint38_linear_1400_5141)"/>
</g>
</g>
<defs>
<linearGradient id="paint0_linear_1400_5141" x1="2778.46" y1="843.046" x2="2585.89" y2="603.827" gradientUnits="userSpaceOnUse">
<stop stop-color="#2976D9"/>
<stop offset="0.43" stop-color="#65A8FF"/>
<stop offset="1" stop-color="#004297"/>
</linearGradient>
<linearGradient id="paint1_linear_1400_5141" x1="2665.94" y1="867.133" x2="2495.23" y2="604.56" gradientUnits="userSpaceOnUse">
<stop stop-color="#2976D9"/>
<stop offset="0.43" stop-color="#65A8FF"/>
<stop offset="1" stop-color="#004297"/>
</linearGradient>
<linearGradient id="paint2_linear_1400_5141" x1="2507.82" y1="892.168" x2="2365.74" y2="612.188" gradientUnits="userSpaceOnUse">
<stop stop-color="#2976D9"/>
<stop offset="0.43" stop-color="#65A8FF"/>
<stop offset="1" stop-color="#004297"/>
</linearGradient>
<linearGradient id="paint3_linear_1400_5141" x1="2258.01" y1="918.417" x2="2149.97" y2="629.221" gradientUnits="userSpaceOnUse">
<stop stop-color="#2976D9"/>
<stop offset="0.43" stop-color="#65A8FF"/>
<stop offset="1" stop-color="#004297"/>
</linearGradient>
<linearGradient id="paint4_linear_1400_5141" x1="2119.29" y1="946.165" x2="2032.86" y2="667.2" gradientUnits="userSpaceOnUse">
<stop stop-color="#2976D9"/>
<stop offset="0.43" stop-color="#65A8FF"/>
<stop offset="1" stop-color="#004297"/>
</linearGradient>
<linearGradient id="paint5_linear_1400_5141" x1="2119.29" y1="975.744" x2="2045.58" y2="716.319" gradientUnits="userSpaceOnUse">
<stop stop-color="#2976D9"/>
<stop offset="0.43" stop-color="#65A8FF"/>
<stop offset="1" stop-color="#004297"/>
</linearGradient>
<linearGradient id="paint6_linear_1400_5141" x1="2119.29" y1="884.092" x2="2093.64" y2="727.068" gradientUnits="userSpaceOnUse">
<stop stop-color="#2976D9"/>
<stop offset="0.43" stop-color="#65A8FF"/>
<stop offset="1" stop-color="#004297"/>
</linearGradient>
<linearGradient id="paint7_linear_1400_5141" x1="2119.29" y1="818.863" x2="2044.69" y2="557.998" gradientUnits="userSpaceOnUse">
<stop stop-color="#2976D9"/>
<stop offset="0.43" stop-color="#65A8FF"/>
<stop offset="1" stop-color="#004297"/>
</linearGradient>
<linearGradient id="paint8_linear_1400_5141" x1="2119.29" y1="760.116" x2="1976.26" y2="412.722" gradientUnits="userSpaceOnUse">
<stop stop-color="#2976D9"/>
<stop offset="0.43" stop-color="#65A8FF"/>
<stop offset="1" stop-color="#004297"/>
</linearGradient>
<linearGradient id="paint9_linear_1400_5141" x1="2119.29" y1="691.755" x2="1902.21" y2="283.002" gradientUnits="userSpaceOnUse">
<stop stop-color="#2976D9"/>
<stop offset="0.43" stop-color="#65A8FF"/>
<stop offset="1" stop-color="#004297"/>
</linearGradient>
<linearGradient id="paint10_linear_1400_5141" x1="2119.29" y1="584.279" x2="1842.41" y2="140.943" gradientUnits="userSpaceOnUse">
<stop stop-color="#2976D9"/>
<stop offset="0.43" stop-color="#65A8FF"/>
<stop offset="1" stop-color="#004297"/>
</linearGradient>
<linearGradient id="paint11_linear_1400_5141" x1="2119.29" y1="472.668" x2="1781.43" y2="4.44578" gradientUnits="userSpaceOnUse">
<stop stop-color="#2976D9"/>
<stop offset="0.43" stop-color="#65A8FF"/>
<stop offset="1" stop-color="#004297"/>
</linearGradient>
<linearGradient id="paint12_linear_1400_5141" x1="2119.29" y1="354.652" x2="1720.13" y2="-129.64" gradientUnits="userSpaceOnUse">
<stop stop-color="#2976D9"/>
<stop offset="0.43" stop-color="#65A8FF"/>
<stop offset="1" stop-color="#004297"/>
</linearGradient>
<linearGradient id="paint13_linear_1400_5141" x1="2029.6" y1="227.32" x2="1568.46" y2="-245.03" gradientUnits="userSpaceOnUse">
<stop stop-color="#2976D9"/>
<stop offset="0.43" stop-color="#65A8FF"/>
<stop offset="1" stop-color="#004297"/>
</linearGradient>
<linearGradient id="paint14_linear_1400_5141" x1="1914.92" y1="174.796" x2="1432.72" y2="-269.505" gradientUnits="userSpaceOnUse">
<stop stop-color="#2976D9"/>
<stop offset="0.43" stop-color="#65A8FF"/>
<stop offset="1" stop-color="#004297"/>
</linearGradient>
<linearGradient id="paint15_linear_1400_5141" x1="1816.91" y1="174.796" x2="1337.43" y2="-244.387" gradientUnits="userSpaceOnUse">
<stop stop-color="#2976D9"/>
<stop offset="0.43" stop-color="#65A8FF"/>
<stop offset="1" stop-color="#004297"/>
</linearGradient>
<linearGradient id="paint16_linear_1400_5141" x1="1825.88" y1="174.796" x2="1360.09" y2="-178.196" gradientUnits="userSpaceOnUse">
<stop stop-color="#2976D9"/>
<stop offset="0.43" stop-color="#65A8FF"/>
<stop offset="1" stop-color="#004297"/>
</linearGradient>
<linearGradient id="paint17_linear_1400_5141" x1="1838.49" y1="174.796" x2="1396.88" y2="-111.415" gradientUnits="userSpaceOnUse">
<stop stop-color="#2976D9"/>
<stop offset="0.43" stop-color="#65A8FF"/>
<stop offset="1" stop-color="#004297"/>
</linearGradient>
<linearGradient id="paint18_linear_1400_5141" x1="1841.75" y1="174.796" x2="1432.33" y2="-51.2409" gradientUnits="userSpaceOnUse">
<stop stop-color="#2976D9"/>
<stop offset="0.43" stop-color="#65A8FF"/>
<stop offset="1" stop-color="#004297"/>
</linearGradient>
<linearGradient id="paint19_linear_1400_5141" x1="1837.1" y1="174.796" x2="1466.49" y2="1.97354" gradientUnits="userSpaceOnUse">
<stop stop-color="#2976D9"/>
<stop offset="0.43" stop-color="#65A8FF"/>
<stop offset="1" stop-color="#004297"/>
</linearGradient>
<linearGradient id="paint20_linear_1400_5141" x1="1825.52" y1="174.796" x2="1499.07" y2="48.0602" gradientUnits="userSpaceOnUse">
<stop stop-color="#2976D9"/>
<stop offset="0.43" stop-color="#65A8FF"/>
<stop offset="1" stop-color="#004297"/>
</linearGradient>
<linearGradient id="paint21_linear_1400_5141" x1="1807.56" y1="174.796" x2="1529.62" y2="86.9935" gradientUnits="userSpaceOnUse">
<stop stop-color="#2976D9"/>
<stop offset="0.43" stop-color="#65A8FF"/>
<stop offset="1" stop-color="#004297"/>
</linearGradient>
<linearGradient id="paint22_linear_1400_5141" x1="1783.43" y1="174.796" x2="1557.52" y2="118.81" gradientUnits="userSpaceOnUse">
<stop stop-color="#2976D9"/>
<stop offset="0.43" stop-color="#65A8FF"/>
<stop offset="1" stop-color="#004297"/>
</linearGradient>
<linearGradient id="paint23_linear_1400_5141" x1="1753.16" y1="174.796" x2="1582.07" y2="143.537" gradientUnits="userSpaceOnUse">
<stop stop-color="#2976D9"/>
<stop offset="0.43" stop-color="#65A8FF"/>
<stop offset="1" stop-color="#004297"/>
</linearGradient>
<linearGradient id="paint24_linear_1400_5141" x1="1716.49" y1="174.796" x2="1602.48" y2="161.171" gradientUnits="userSpaceOnUse">
<stop stop-color="#2976D9"/>
<stop offset="0.43" stop-color="#65A8FF"/>
<stop offset="1" stop-color="#004297"/>
</linearGradient>
<linearGradient id="paint25_linear_1400_5141" x1="1722.79" y1="174.796" x2="1551.71" y2="143.539" gradientUnits="userSpaceOnUse">
<stop stop-color="#2976D9"/>
<stop offset="0.43" stop-color="#65A8FF"/>
<stop offset="1" stop-color="#004297"/>
</linearGradient>
<linearGradient id="paint26_linear_1400_5141" x1="1722.23" y1="174.796" x2="1496.32" y2="118.812" gradientUnits="userSpaceOnUse">
<stop stop-color="#2976D9"/>
<stop offset="0.43" stop-color="#65A8FF"/>
<stop offset="1" stop-color="#004297"/>
</linearGradient>
<linearGradient id="paint27_linear_1400_5141" x1="1714.55" y1="174.796" x2="1436.62" y2="86.9957" gradientUnits="userSpaceOnUse">
<stop stop-color="#2976D9"/>
<stop offset="0.43" stop-color="#65A8FF"/>
<stop offset="1" stop-color="#004297"/>
</linearGradient>
<linearGradient id="paint28_linear_1400_5141" x1="1699.21" y1="174.796" x2="1372.76" y2="48.0602" gradientUnits="userSpaceOnUse">
<stop stop-color="#2976D9"/>
<stop offset="0.43" stop-color="#65A8FF"/>
<stop offset="1" stop-color="#004297"/>
</linearGradient>
<linearGradient id="paint29_linear_1400_5141" x1="1675.25" y1="174.796" x2="1304.63" y2="1.97354" gradientUnits="userSpaceOnUse">
<stop stop-color="#2976D9"/>
<stop offset="0.43" stop-color="#65A8FF"/>
<stop offset="1" stop-color="#004297"/>
</linearGradient>
<linearGradient id="paint30_linear_1400_5141" x1="1641.35" y1="174.796" x2="1231.94" y2="-51.2355" gradientUnits="userSpaceOnUse">
<stop stop-color="#2976D9"/>
<stop offset="0.43" stop-color="#65A8FF"/>
<stop offset="1" stop-color="#004297"/>
</linearGradient>
<linearGradient id="paint31_linear_1400_5141" x1="1595.46" y1="174.796" x2="1153.85" y2="-111.415" gradientUnits="userSpaceOnUse">
<stop stop-color="#2976D9"/>
<stop offset="0.43" stop-color="#65A8FF"/>
<stop offset="1" stop-color="#004297"/>
</linearGradient>
<linearGradient id="paint32_linear_1400_5141" x1="1550.01" y1="174.796" x2="1086.28" y2="-171.066" gradientUnits="userSpaceOnUse">
<stop stop-color="#2976D9"/>
<stop offset="0.43" stop-color="#65A8FF"/>
<stop offset="1" stop-color="#004297"/>
</linearGradient>
<linearGradient id="paint33_linear_1400_5141" x1="1602.32" y1="174.796" x2="1134.42" y2="-185.954" gradientUnits="userSpaceOnUse">
<stop stop-color="#2976D9"/>
<stop offset="0.43" stop-color="#65A8FF"/>
<stop offset="1" stop-color="#004297"/>
</linearGradient>
<linearGradient id="paint34_linear_1400_5141" x1="1659.19" y1="88.988" x2="1212.81" y2="-292.561" gradientUnits="userSpaceOnUse">
<stop stop-color="#2976D9"/>
<stop offset="0.43" stop-color="#65A8FF"/>
<stop offset="1" stop-color="#004297"/>
</linearGradient>
<linearGradient id="paint35_linear_1400_5141" x1="1723.14" y1="-73.0038" x2="1331.63" y2="-474.032" gradientUnits="userSpaceOnUse">
<stop stop-color="#2976D9"/>
<stop offset="0.43" stop-color="#65A8FF"/>
<stop offset="1" stop-color="#004297"/>
</linearGradient>
<linearGradient id="paint36_linear_1400_5141" x1="1798.31" y1="-219.826" x2="1469.09" y2="-628.808" gradientUnits="userSpaceOnUse">
<stop stop-color="#2976D9"/>
<stop offset="0.43" stop-color="#65A8FF"/>
<stop offset="1" stop-color="#004297"/>
</linearGradient>
<linearGradient id="paint37_linear_1400_5141" x1="1892.02" y1="-355.938" x2="1630.3" y2="-758.502" gradientUnits="userSpaceOnUse">
<stop stop-color="#2976D9"/>
<stop offset="0.43" stop-color="#65A8FF"/>
<stop offset="1" stop-color="#004297"/>
</linearGradient>
<linearGradient id="paint38_linear_1400_5141" x1="2018.69" y1="-484.631" x2="1826.21" y2="-863.921" gradientUnits="userSpaceOnUse">
<stop stop-color="#2976D9"/>
<stop offset="0.43" stop-color="#65A8FF"/>
<stop offset="1" stop-color="#004297"/>
</linearGradient>
</defs>
</svg>
